<?xml version="1.0" standalone="no"?>
<!DOCTYPE svg PUBLIC "-//W3C//DTD SVG 20010904//EN"
 "http://www.w3.org/TR/2001/REC-SVG-20010904/DTD/svg10.dtd">
<svg version="1.0" xmlns="http://www.w3.org/2000/svg"
 width="270.000000pt" height="270.000000pt" viewBox="0 0 270.000000 270.000000"
 preserveAspectRatio="xMidYMid meet">
<metadata>
Created by potrace 1.11, written by Peter Selinger 2001-2013
</metadata>
<g transform="translate(0.000000,270.000000) scale(0.100000,-0.100000)"
fill="#000000" stroke="none">
<path d="M2093 2370 c-21 -8 -23 -16 -23 -75 0 -61 2 -66 26 -75 39 -15 101
-12 118 6 11 10 16 34 16 74 0 48 -4 61 -19 70 -24 12 -87 12 -118 0z"/>
<path d="M303 2056 l-28 -24 -3 -270 c-2 -148 1 -285 6 -303 5 -23 21 -43 48
-61 l39 -27 953 -1 c1051 0 984 -4 1035 64 l27 35 0 268 0 269 -34 37 -34 37
-990 0 -991 0 -28 -24z m221 -26 l26 -10 0 -204 c0 -248 -3 -242 111 -252 42
-4 116 -3 163 1 70 5 92 11 114 30 l27 23 5 203 5 203 33 10 c20 5 44 5 65 0
l32 -10 3 -284 c1 -159 -2 -288 -7 -293 -16 -16 -101 -10 -122 9 -18 16 -20
16 -40 -2 -19 -17 -38 -19 -214 -19 -170 0 -195 2 -212 18 -11 9 -24 17 -30
17 -16 0 -50 42 -72 92 -19 42 -21 65 -21 232 0 191 6 231 37 239 32 8 71 7
97 -3z m820 4 c9 -3 16 -15 16 -25 0 -24 1 -24 60 6 46 23 59 25 198 25 137 0
154 -2 206 -25 38 -17 65 -37 86 -66 l30 -42 0 -228 c0 -157 -3 -230 -11 -235
-15 -9 -108 -9 -117 0 -4 4 -8 98 -9 209 -2 197 -2 201 -25 219 -40 32 -66 38
-176 37 -79 0 -119 -5 -152 -18 -68 -28 -79 -65 -80 -266 0 -88 -4 -166 -9
-174 -9 -14 -107 -18 -120 -5 -8 8 -14 510 -6 551 3 18 13 34 23 36 27 7 69 8
86 1z m847 -4 c18 -10 19 -24 19 -296 l0 -284 -23 -9 c-12 -5 -40 -6 -62 -2
l-40 6 -3 285 c-2 259 -1 286 15 298 20 15 67 16 94 2z"/>
<path d="M441 1130 c-18 -4 -51 -16 -72 -26 -39 -17 -40 -17 -62 4 -29 27 -53
28 -67 3 -14 -26 -14 -486 0 -512 13 -23 53 -25 74 -3 13 13 16 46 16 201 l0
185 33 33 c25 25 45 34 86 40 68 9 179 -2 209 -22 29 -18 54 -76 47 -106 -8
-30 15 -49 52 -45 26 3 28 6 31 58 7 116 -29 160 -148 185 -76 16 -145 18
-199 5z"/>
<path d="M1100 1134 c-94 -16 -134 -29 -160 -51 -57 -48 -64 -74 -65 -230 0
-141 0 -141 30 -185 18 -25 49 -53 75 -66 43 -22 53 -23 250 -20 193 3 208 4
254 27 49 24 76 64 76 110 0 46 -89 31 -104 -17 -11 -34 -55 -46 -185 -50
-216 -7 -301 28 -301 127 0 64 -16 61 295 61 227 0 285 3 294 14 8 10 8 33 0
91 -11 72 -15 82 -54 121 -32 32 -55 45 -96 54 -55 12 -264 22 -309 14z m304
-99 c36 -17 66 -58 66 -89 0 -31 -38 -36 -252 -36 -240 0 -255 4 -244 57 10
42 48 75 99 84 77 14 290 3 331 -16z"/>
<path d="M1940 1134 c-55 -11 -96 -28 -114 -47 -19 -19 -21 -19 -30 -3 -30 49
-33 51 -63 41 l-28 -10 -3 -353 -2 -352 24 -6 c56 -14 61 -7 64 99 3 109 10
119 61 93 24 -13 66 -16 209 -16 175 0 180 1 233 27 81 42 98 82 99 241 0 230
-53 280 -305 287 -66 2 -131 1 -145 -1z m254 -84 c22 -5 53 -23 70 -39 l31
-31 0 -123 c0 -106 -3 -125 -20 -149 -33 -44 -61 -52 -205 -56 -174 -5 -223
10 -257 78 -18 35 -23 61 -23 123 0 116 40 182 118 197 54 11 241 11 286 0z"/>
</g>
</svg>
